<svg width="352pt" height="295pt" viewBox="0.00 0.00 352.00 295.00" xmlns="http://www.w3.org/2000/svg" xmlns:xlink="http://www.w3.org/1999/xlink">
<g id="graph0" class="graph" transform="scale(1 1) rotate(0) translate(4 291)">
<polygon fill="white" stroke="transparent" points="-4,4 -4,-291 348,-291 348,4 -4,4"></polygon>
<g id="clust2" class="cluster">
<title>cluster_7</title>
<path fill="none" stroke="black" stroke-dasharray="1,5" d="M20,-210C20,-210 210,-210 210,-210 216,-210 222,-216 222,-222 222,-222 222,-267 222,-267 222,-273 216,-279 210,-279 210,-279 20,-279 20,-279 14,-279 8,-273 8,-267 8,-267 8,-222 8,-222 8,-216 14,-210 20,-210"></path>
<text text-anchor="middle" x="115" y="-268.6" font-family="Times,serif" font-size="8.00" fill="gray">#7. Smallest: a - a</text>
</g>
<g id="clust1" class="cluster">
<title>cluster_5</title>
<path fill="none" stroke="black" stroke-dasharray="1,5" d="M248,-8C248,-8 300,-8 300,-8 306,-8 312,-14 312,-20 312,-20 312,-65 312,-65 312,-71 306,-77 300,-77 300,-77 248,-77 248,-77 242,-77 236,-71 236,-65 236,-65 236,-20 236,-20 236,-14 242,-8 248,-8"></path>
<text text-anchor="middle" x="274" y="-66.6" font-family="Times,serif" font-size="8.00" fill="gray">#5. Smallest: a - a</text>
</g>
<g id="clust4" class="cluster">
<title>cluster_1</title>
<path fill="none" stroke="black" stroke-dasharray="1,5" d="M129,-8C129,-8 181,-8 181,-8 187,-8 193,-14 193,-20 193,-20 193,-65 193,-65 193,-71 187,-77 181,-77 181,-77 129,-77 129,-77 123,-77 117,-71 117,-65 117,-65 117,-20 117,-20 117,-14 123,-8 129,-8"></path>
<text text-anchor="middle" x="155" y="-66.6" font-family="Times,serif" font-size="8.00" fill="gray">#1. Smallest: a - a</text>
</g>
<g id="clust3" class="cluster">
<title>cluster_3</title>
<path fill="none" stroke="black" stroke-dasharray="1,5" d="M206,-109C206,-109 324,-109 324,-109 330,-109 336,-115 336,-121 336,-121 336,-166 336,-166 336,-172 330,-178 324,-178 324,-178 206,-178 206,-178 200,-178 194,-172 194,-166 194,-166 194,-121 194,-121 194,-115 200,-109 206,-109"></path>
<text text-anchor="middle" x="265" y="-167.6" font-family="Times,serif" font-size="8.00" fill="gray">#3. Smallest: a - a</text>
</g>
<!-- 5.1 -->
<g id="node1" class="node">
<title>5.1</title>
<path fill="none" stroke="black" d="M289,-52C289,-52 259,-52 259,-52 253,-52 247,-46 247,-40 247,-40 247,-28 247,-28 247,-22 253,-16 259,-16 259,-16 289,-16 289,-16 295,-16 301,-22 301,-28 301,-28 301,-40 301,-40 301,-46 295,-52 289,-52"></path>
<text text-anchor="start" x="268" y="-30.3" font-family="Times,serif" font-size="14.00">-1</text>
</g>
<!-- 7.1 -->
<g id="node2" class="node">
<title>7.1</title>
<path fill="none" stroke="black" d="M58,-254C58,-254 28,-254 28,-254 22,-254 16,-248 16,-242 16,-242 16,-230 16,-230 16,-224 22,-218 28,-218 28,-218 58,-218 58,-218 64,-218 70,-224 70,-230 70,-230 70,-242 70,-242 70,-248 64,-254 58,-254"></path>
<text text-anchor="start" x="38.5" y="-232.3" font-family="Times,serif" font-size="14.00">+</text>
</g>
<!-- 3.1 -->
<g id="node5" class="node">
<title>3.1</title>
<path fill="none" stroke="black" d="M244,-153C244,-153 214,-153 214,-153 208,-153 202,-147 202,-141 202,-141 202,-129 202,-129 202,-123 208,-117 214,-117 214,-117 244,-117 244,-117 250,-117 256,-123 256,-129 256,-129 256,-141 256,-141 256,-147 250,-153 244,-153"></path>
<text text-anchor="start" x="226.5" y="-131.3" font-family="Times,serif" font-size="14.00">-</text>
</g>
<!-- 7.1&#45;&gt;3.1 -->
<g id="edge1" class="edge">
<title>7.1:sw-&gt;3.1</title>
<path fill="none" stroke="black" d="M16,-217C2.86,-203.86 123.77,-166.37 189.02,-147.35"></path>
<polygon fill="black" stroke="black" points="189.69,-148.98 194,-145.91 188.71,-145.62 189.69,-148.98"></polygon>
</g>
<!-- 1.1 -->
<g id="node6" class="node">
<title>1.1</title>
<path fill="none" stroke="black" d="M170,-52C170,-52 140,-52 140,-52 134,-52 128,-46 128,-40 128,-40 128,-28 128,-28 128,-22 134,-16 140,-16 140,-16 170,-16 170,-16 176,-16 182,-22 182,-28 182,-28 182,-40 182,-40 182,-46 176,-52 170,-52"></path>
<text text-anchor="start" x="151.5" y="-30.3" font-family="Times,serif" font-size="14.00">a</text>
</g>
<!-- 7.1&#45;&gt;1.1 -->
<g id="edge2" class="edge">
<title>7.1:se-&gt;1.1</title>
<path fill="none" stroke="black" d="M70,-217C87.06,-199.94 70.65,-130.79 81,-109 88.48,-93.26 100.74,-78.93 113.15,-67.16"></path>
<polygon fill="black" stroke="black" points="114.52,-68.27 117,-63.59 112.14,-65.7 114.52,-68.27"></polygon>
</g>
<!-- 7.2 -->
<g id="node3" class="node">
<title>7.2</title>
<path fill="none" stroke="black" d="M130,-254C130,-254 100,-254 100,-254 94,-254 88,-248 88,-242 88,-242 88,-230 88,-230 88,-224 94,-218 100,-218 100,-218 130,-218 130,-218 136,-218 142,-224 142,-230 142,-230 142,-242 142,-242 142,-248 136,-254 130,-254"></path>
<text text-anchor="start" x="110.5" y="-232.3" font-family="Times,serif" font-size="14.00">+</text>
</g>
<!-- 7.2&#45;&gt;3.1 -->
<g id="edge4" class="edge">
<title>7.2:se-&gt;3.1</title>
<path fill="none" stroke="black" d="M142,-217C157.42,-201.58 174.93,-185.09 190.18,-171.05"></path>
<polygon fill="black" stroke="black" points="191.51,-172.2 194,-167.53 189.14,-169.62 191.51,-172.2"></polygon>
</g>
<!-- 7.2&#45;&gt;1.1 -->
<g id="edge3" class="edge">
<title>7.2:sw-&gt;1.1</title>
<path fill="none" stroke="black" d="M88,-217C68.54,-197.54 101.26,-128.7 127.45,-81.49"></path>
<polygon fill="black" stroke="black" points="129.06,-82.22 129.97,-77 126,-80.51 129.06,-82.22"></polygon>
</g>
<!-- 7.3 -->
<g id="node4" class="node">
<title>7.3</title>
<path fill="none" stroke="black" d="M202,-254C202,-254 172,-254 172,-254 166,-254 160,-248 160,-242 160,-242 160,-230 160,-230 160,-224 166,-218 172,-218 172,-218 202,-218 202,-218 208,-218 214,-224 214,-230 214,-230 214,-242 214,-242 214,-248 208,-254 202,-254"></path>
<text text-anchor="start" x="184.5" y="-232.3" font-family="Times,serif" font-size="14.00">-</text>
</g>
<!-- 7.3&#45;&gt;1.1 -->
<g id="edge5" class="edge">
<title>7.3:sw-&gt;1.1</title>
<path fill="none" stroke="black" d="M160,-217C125.5,-182.5 130.79,-123.43 140.42,-81.96"></path>
<polygon fill="black" stroke="black" points="142.15,-82.27 141.62,-77 138.75,-81.45 142.15,-82.27"></polygon>
</g>
<!-- 7.3&#45;&gt;1.1 -->
<g id="edge6" class="edge">
<title>7.3:se-&gt;1.1</title>
<path fill="none" stroke="black" d="M214,-217C228.39,-202.61 197.85,-196.78 190,-178 177.14,-147.22 168.29,-110.66 162.71,-82.21"></path>
<polygon fill="black" stroke="black" points="164.37,-81.58 161.71,-77 160.94,-82.24 164.37,-81.58"></polygon>
</g>
<!-- 3.1&#45;&gt;1.1 -->
<g id="edge7" class="edge">
<title>3.1-&gt;1.1</title>
<path fill="none" stroke="black" d="M216.11,-116.76C208.72,-106.86 199.05,-93.93 189.59,-81.27"></path>
<polygon fill="black" stroke="black" points="190.79,-79.95 186.39,-77 187.98,-82.05 190.79,-79.95"></polygon>
</g>
<!-- 3.2 -->
<g id="node7" class="node">
<title>3.2</title>
<path fill="none" stroke="black" d="M316,-153C316,-153 286,-153 286,-153 280,-153 274,-147 274,-141 274,-141 274,-129 274,-129 274,-123 280,-117 286,-117 286,-117 316,-117 316,-117 322,-117 328,-123 328,-129 328,-129 328,-141 328,-141 328,-147 322,-153 316,-153"></path>
<text text-anchor="start" x="297.5" y="-131.3" font-family="Times,serif" font-size="14.00">*</text>
</g>
<!-- 3.2&#45;&gt;5.1 -->
<g id="edge8" class="edge">
<title>3.2:sw-&gt;5.1</title>
<path fill="none" stroke="black" d="M274,-116C265.12,-107.12 262.43,-94.57 262.7,-82"></path>
<polygon fill="black" stroke="black" points="264.45,-82.08 262.96,-77 260.96,-81.9 264.45,-82.08"></polygon>
</g>
<!-- 3.2&#45;&gt;1.1 -->
<g id="edge9" class="edge">
<title>3.2:se-&gt;1.1</title>
<path fill="none" stroke="black" d="M328,-116C360.56,-83.44 273.62,-96.72 232,-77 220.7,-71.64 208.73,-65.4 197.68,-59.4"></path>
<polygon fill="black" stroke="black" points="198.23,-57.7 193,-56.84 196.55,-60.77 198.23,-57.7"></polygon>
</g>
</g>
</svg>